<?xml version="1.0" encoding="utf-8"?>
<!-- Generator: Adobe Illustrator 26.0.0, SVG Export Plug-In . SVG Version: 6.00 Build 0)  -->
<svg version="1.1" id="Capa_1" xmlns="http://www.w3.org/2000/svg" xmlns:xlink="http://www.w3.org/1999/xlink" x="0px" y="0px"
	 viewBox="0 0 510.24 510.24" style="enable-background:new 0 0 510.24 510.24;" xml:space="preserve">
<style type="text/css">
	.st0{fill:none;stroke:#000000;stroke-width:5;stroke-linecap:round;stroke-miterlimit:10;}
</style>
<g>
	<path d="M82.02,474.27c2-121.87,15.21-306.09,21.23-429.52c0,0,0.13-2.36,0.13-2.36s2.37,0,2.37,0
		c44.7-0.03,137.14,0.08,180.86-0.06c9.7,0.12,31.83,0.88,41.74,1.09c0,0,1.5,0.04,1.5,0.04s-0.04,1.42-0.04,1.42
		c-0.36,12.42-1.01,37.31-1.46,49.72c0,0-0.79-24.86-0.79-24.86s-0.68-24.86-0.68-24.86l1.46,1.46
		c-10.09,0.22-32.05,0.95-41.74,1.09c-43.32-0.14-136.59-0.02-180.86-0.06c0,0,2.5-2.36,2.5-2.36
		C100.6,168.91,93.5,352.26,82.02,474.27L82.02,474.27z"/>
</g>
<ellipse class="st0" cx="328.34" cy="113.81" rx="29.1" ry="24.29"/>
<polyline class="st0" points="328.34,138.11 328.34,213.25 305.88,233.88 "/>
<polyline class="st0" points="357.44,160.47 352.94,165.93 328.34,156.19 310.83,175.68 299.25,169.8 "/>
<line class="st0" x1="328.34" y1="213.25" x2="348.71" y2="232"/>
</svg>
